# xmcd
#
# Track frame offsets:
# 150
# 15173
# 33957
# 51288
# 66127
# 89692
# 105310
# 126006
# 139285
# 153359
# 169616
# 186719
# 199653
#
# Disc length: 2912 seconds
#
#
# Revision: 0
# Processed by: cddbd v1.5PL3 Copyright (c) Steve Scherf et al.
# Submitted via: FreeRIP 2.53 
#
DISCID=ac0b5e0d
DTITLE=Alabama - When It All Goes South/Volume 1
DYEAR=1900
DGENRE=Country
TTITLE0=Forty Hour Week
TTITLE1=Angels Among Us
TTITLE2=Cheap Seats
TTITLE3=Clear Across America Tonight
TTITLE4=Dixie Land Delight
TTITLE5=Down This Road
TTITLE6=God Must Have Spent A Little More Time On You
TTITLE7=How Do You Fall In Love
TTITLE8=I Can't Hide My Heart
TTITLE9=I Can't Love You Any Less
TTITLE10=If Your Gonna Play In Texas
TTITLE11=In A Hurry
TTITLE12=I Write A Little
EXTD=
EXTT0=
EXTT1=
EXTT2=
EXTT3=
EXTT4=
EXTT5=
EXTT6=
EXTT7=
EXTT8=
EXTT9=
EXTT10=
EXTT11=
EXTT12=
PLAYORDER=
